<?xml version="1.0" encoding="UTF-8"?>
<svg version="1.1" xmlns="http://www.w3.org/2000/svg" width="1024" height="1024">
<path d="M0 0 C337.92 0 675.84 0 1024 0 C1024 337.92 1024 675.84 1024 1024 C686.08 1024 348.16 1024 0 1024 C0 686.08 0 348.16 0 0 Z " fill="#FEFEFE" transform="translate(0,0)"/>
<path d="M0 0 C0.96421875 0.83144531 1.9284375 1.66289062 2.921875 2.51953125 C23.45817531 20.55635842 37.65314338 44.73593599 45 71 C45.19754883 71.6796582 45.39509766 72.35931641 45.59863281 73.05957031 C51.63894669 94.68013734 51.43038449 121.24104796 46 143 C45.83371094 143.71397949 45.66742187 144.42795898 45.49609375 145.16357422 C36.28732743 184.25819789 12.85072167 218.0211786 -13 248 C-13.61488281 248.71671875 -14.22976563 249.4334375 -14.86328125 250.171875 C-21.78535444 258.16777816 -28.90157291 266.02763534 -36.4609375 273.42578125 C-38.04973705 275.05087317 -39.49087378 276.747803 -40.9375 278.5 C-43.02669792 280.9908399 -45.21029565 283.12024498 -47.69140625 285.21875 C-52.0060266 288.94871339 -56.00810191 292.93013515 -60 297 C-64.55357149 301.64250844 -69.16989184 306.1082785 -74.09863281 310.35253906 C-77.45954932 313.26464289 -80.69800637 316.31036078 -83.94921875 319.34375 C-88.41547583 323.47532632 -91.10229168 324.69151413 -97.1796875 324.5703125 C-103.00051626 323.3932474 -106.82990335 318.97356779 -111 315 C-112.31545137 313.77631646 -113.6319232 312.55372932 -114.94921875 311.33203125 C-117.87144532 308.60892509 -120.7754023 305.86786309 -123.66796875 303.11328125 C-126.99455768 299.94612059 -130.3509643 296.81430439 -133.72558594 293.69848633 C-139.76150101 288.11743089 -145.67581686 282.42685789 -151.5 276.625 C-152.14654541 275.98304688 -152.79309082 275.34109375 -153.45922852 274.6796875 C-157.24885576 270.87778655 -160.83975811 266.95572484 -164.34765625 262.89306641 C-166.28661762 260.67162633 -168.29645533 258.5281399 -170.32275391 256.38671875 C-176.54064632 249.8008156 -182.19963536 242.89713019 -187.69287109 235.70117188 C-188.94275202 234.07450578 -190.21131238 232.46482299 -191.48828125 230.859375 C-218.71180004 196.29809756 -240.21088115 155.03030295 -240.25 110.1875 C-240.25067474 109.4946994 -240.25134949 108.8018988 -240.25204468 108.08810425 C-240.19327127 70.07818945 -225.28690047 34.18110174 -198.5 7.0625 C-176.01643982 -14.94239968 -145.38884122 -30.42464383 -114 -34 C-113.12859375 -34.10957031 -112.2571875 -34.21914062 -111.359375 -34.33203125 C-71.58726163 -38.69300859 -30.20323001 -26.35475393 0 0 Z " fill="#4999DE" transform="translate(608,246)"/>
<path d="M0 0 C4.83726846 1.38515254 8.08146766 4.29726394 11.6328125 7.75390625 C12.23738281 8.34042969 12.84195313 8.92695313 13.46484375 9.53125 C14.62634318 10.68750564 15.77733499 11.85440564 16.91796875 13.03125 C18.59529816 14.716221 20.32887535 16.26851179 22.1328125 17.81640625 C26.19215859 21.31502555 30.09933123 24.96403912 34.0078125 28.62890625 C38.99632507 33.30464215 44.0198011 37.93101527 49.1171875 42.48828125 C52.66550048 45.68396685 56.16858976 48.9276589 59.67407227 52.17016602 C63.33992226 55.5609295 67.0131271 58.9433889 70.6953125 62.31640625 C71.66597656 63.20585937 72.63664063 64.0953125 73.63671875 65.01171875 C75.72617184 66.92503612 77.81773392 68.83602432 79.91015625 70.74609375 C80.44954834 71.23907959 80.98894043 71.73206543 81.54467773 72.23999023 C83.04218963 73.60858488 84.54059734 74.97619914 86.0390625 76.34375 C86.895 77.13910156 87.7509375 77.93445313 88.6328125 78.75390625 C89.3959375 79.42679687 90.1590625 80.0996875 90.9453125 80.79296875 C93.45597619 83.71045294 93.20319341 85.85636829 93.0078125 89.5625 C92.41465401 93.02876994 91.37146852 94.56298143 88.6328125 96.75390625 C85.97481279 97.30581216 83.34095251 97.48969747 80.6328125 97.75390625 C80.64280525 99.15545959 80.64280525 99.15545959 80.65299988 100.58532715 C80.71394761 109.41248388 80.75885055 118.23959762 80.78824902 127.06691742 C80.80387143 131.60459701 80.8250468 136.14210605 80.85913086 140.6796875 C80.89184691 145.0628272 80.90969125 149.44580336 80.91744423 153.82905579 C80.92296583 155.49712191 80.93374803 157.16517959 80.95000267 158.83317566 C80.9719403 161.17869052 80.9747727 163.52353886 80.97338867 165.86914062 C80.9841745 166.55103455 80.99496033 167.23292847 81.006073 167.93548584 C80.96839788 173.87794295 79.62665495 179.35962682 75.765625 183.99609375 C75.10304688 184.53492188 74.44046875 185.07375 73.7578125 185.62890625 C73.10039063 186.18320312 72.44296875 186.7375 71.765625 187.30859375 C67.57812323 190.1462781 63.94647232 191.00440999 58.92228699 191.02806091 C57.2128315 191.04302361 57.2128315 191.04302361 55.46884155 191.05828857 C54.22768585 191.05895325 52.98653015 191.05961792 51.70776367 191.06030273 C50.39339828 191.06862625 49.0790329 191.07694977 47.72483826 191.08552551 C44.12552983 191.10743242 40.52630633 191.1162643 36.92693877 191.12135196 C34.67567618 191.12500017 32.42443568 191.13124265 30.17318153 191.13835335 C22.31197766 191.16283503 14.45083965 191.17589687 6.58959961 191.17944336 C-0.72627977 191.18307723 -8.04173927 191.21296483 -15.35749036 191.25484794 C-21.64812455 191.28959349 -27.93861986 191.30499254 -34.22934932 191.30568939 C-37.98225132 191.30648079 -41.7347254 191.31515543 -45.48752785 191.34368706 C-49.67663608 191.37482474 -53.86474976 191.36578784 -58.05395508 191.35327148 C-59.90657959 191.37552292 -59.90657959 191.37552292 -61.79663086 191.39822388 C-69.86854933 191.32957867 -75.10963715 190.01037307 -80.88110065 184.24037838 C-85.53936038 178.93908955 -86.66409965 175.08615799 -86.59423828 168.13964844 C-86.59453033 167.37828583 -86.59482239 166.61692322 -86.59512329 165.83248901 C-86.59373256 163.32180289 -86.57818354 160.81141539 -86.5625 158.30078125 C-86.55876896 156.55772056 -86.55592241 154.81465777 -86.55392456 153.07159424 C-86.5462953 148.48814077 -86.52665287 143.90481444 -86.5045166 139.32141113 C-86.48404296 134.642677 -86.47491959 129.96392229 -86.46484375 125.28515625 C-86.44340632 116.10801712 -86.40927888 106.93097226 -86.3671875 97.75390625 C-88.00880859 97.56828125 -88.00880859 97.56828125 -89.68359375 97.37890625 C-93.3671875 96.75390625 -93.3671875 96.75390625 -96.3046875 94.75390625 C-98.73039336 91.22560681 -99.02615385 89.33081719 -98.91821289 85.14355469 C-97.83619943 80.45115426 -94.16866721 77.87611094 -90.6171875 74.87890625 C-89.84093018 74.18837158 -89.06467285 73.49783691 -88.26489258 72.78637695 C-86.70243185 71.3982944 -85.13130134 70.01990378 -83.55126953 68.65185547 C-80.6623078 66.14137162 -77.85951624 63.5448333 -75.0546875 60.94140625 C-73.15953239 59.21149628 -71.26371053 57.48231644 -69.3671875 55.75390625 C-67.38735608 53.94212418 -65.40803273 52.12980884 -63.4296875 50.31640625 C-62.93686279 49.86483154 -62.44403809 49.41325684 -61.9362793 48.94799805 C-57.68888288 45.05391877 -53.45515792 41.14513712 -49.22290039 37.23461914 C-45.12153578 33.44643852 -41.01011614 29.66942517 -36.88891602 25.90283203 C-34.28428103 23.52020486 -31.69107871 21.12650457 -29.11328125 18.71484375 C-26.40353073 16.18040648 -23.67029514 13.67361593 -20.92236328 11.18066406 C-19.42482067 9.80678038 -17.95585856 8.40194121 -16.48828125 6.99609375 C-11.23446919 2.22805379 -7.29413254 -0.65460164 0 0 Z " fill="#4798DE" transform="translate(515.3671875,266.24609375)"/>
<path d="M0 0 C4.83726846 1.38515254 8.08146766 4.29726394 11.6328125 7.75390625 C12.23738281 8.34042969 12.84195313 8.92695313 13.46484375 9.53125 C14.62634318 10.68750564 15.77733499 11.85440564 16.91796875 13.03125 C18.59529816 14.716221 20.32887535 16.26851179 22.1328125 17.81640625 C26.19215859 21.31502555 30.09933123 24.96403912 34.0078125 28.62890625 C38.99632507 33.30464215 44.0198011 37.93101527 49.1171875 42.48828125 C52.66550048 45.68396685 56.16858976 48.9276589 59.67407227 52.17016602 C63.33992226 55.5609295 67.0131271 58.9433889 70.6953125 62.31640625 C71.66597656 63.20585937 72.63664063 64.0953125 73.63671875 65.01171875 C75.72617184 66.92503612 77.81773392 68.83602432 79.91015625 70.74609375 C80.44954834 71.23907959 80.98894043 71.73206543 81.54467773 72.23999023 C83.04218963 73.60858488 84.54059734 74.97619914 86.0390625 76.34375 C86.895 77.13910156 87.7509375 77.93445313 88.6328125 78.75390625 C89.3959375 79.42679687 90.1590625 80.0996875 90.9453125 80.79296875 C93.45597619 83.71045294 93.20319341 85.85636829 93.0078125 89.5625 C92.41465401 93.02876994 91.37146852 94.56298143 88.6328125 96.75390625 C85.97481279 97.30581216 83.34095251 97.48969747 80.6328125 97.75390625 C80.64280525 99.15545959 80.64280525 99.15545959 80.65299988 100.58532715 C80.71394761 109.41248388 80.75885055 118.23959762 80.78824902 127.06691742 C80.80387143 131.60459701 80.8250468 136.14210605 80.85913086 140.6796875 C80.89184691 145.0628272 80.90969125 149.44580336 80.91744423 153.82905579 C80.92296583 155.49712191 80.93374803 157.16517959 80.95000267 158.83317566 C80.9719403 161.17869052 80.9747727 163.52353886 80.97338867 165.86914062 C80.9841745 166.55103455 80.99496033 167.23292847 81.006073 167.93548584 C80.96839788 173.87794295 79.62665495 179.35962682 75.765625 183.99609375 C75.10304688 184.53492188 74.44046875 185.07375 73.7578125 185.62890625 C73.10039063 186.18320312 72.44296875 186.7375 71.765625 187.30859375 C67.57812323 190.1462781 63.94647232 191.00440999 58.92228699 191.02806091 C57.2128315 191.04302361 57.2128315 191.04302361 55.46884155 191.05828857 C54.22768585 191.05895325 52.98653015 191.05961792 51.70776367 191.06030273 C50.39339828 191.06862625 49.0790329 191.07694977 47.72483826 191.08552551 C44.12552983 191.10743242 40.52630633 191.1162643 36.92693877 191.12135196 C34.67567618 191.12500017 32.42443568 191.13124265 30.17318153 191.13835335 C22.31197766 191.16283503 14.45083965 191.17589687 6.58959961 191.17944336 C-0.72627977 191.18307723 -8.04173927 191.21296483 -15.35749036 191.25484794 C-21.64812455 191.28959349 -27.93861986 191.30499254 -34.22934932 191.30568939 C-37.98225132 191.30648079 -41.7347254 191.31515543 -45.48752785 191.34368706 C-49.67663608 191.37482474 -53.86474976 191.36578784 -58.05395508 191.35327148 C-59.90657959 191.37552292 -59.90657959 191.37552292 -61.79663086 191.39822388 C-69.86854933 191.32957867 -75.10963715 190.01037307 -80.88110065 184.24037838 C-85.53936038 178.93908955 -86.66409965 175.08615799 -86.59423828 168.13964844 C-86.59453033 167.37828583 -86.59482239 166.61692322 -86.59512329 165.83248901 C-86.59373256 163.32180289 -86.57818354 160.81141539 -86.5625 158.30078125 C-86.55876896 156.55772056 -86.55592241 154.81465777 -86.55392456 153.07159424 C-86.5462953 148.48814077 -86.52665287 143.90481444 -86.5045166 139.32141113 C-86.48404296 134.642677 -86.47491959 129.96392229 -86.46484375 125.28515625 C-86.44340632 116.10801712 -86.40927888 106.93097226 -86.3671875 97.75390625 C-88.00880859 97.56828125 -88.00880859 97.56828125 -89.68359375 97.37890625 C-93.3671875 96.75390625 -93.3671875 96.75390625 -96.3046875 94.75390625 C-98.73039336 91.22560681 -99.02615385 89.33081719 -98.91821289 85.14355469 C-97.83619943 80.45115426 -94.16866721 77.87611094 -90.6171875 74.87890625 C-89.84093018 74.18837158 -89.06467285 73.49783691 -88.26489258 72.78637695 C-86.70243185 71.3982944 -85.13130134 70.01990378 -83.55126953 68.65185547 C-80.6623078 66.14137162 -77.85951624 63.5448333 -75.0546875 60.94140625 C-73.15953239 59.21149628 -71.26371053 57.48231644 -69.3671875 55.75390625 C-67.38735608 53.94212418 -65.40803273 52.12980884 -63.4296875 50.31640625 C-62.93686279 49.86483154 -62.44403809 49.41325684 -61.9362793 48.94799805 C-57.68888288 45.05391877 -53.45515792 41.14513712 -49.22290039 37.23461914 C-45.12153578 33.44643852 -41.01011614 29.66942517 -36.88891602 25.90283203 C-34.28428103 23.52020486 -31.69107871 21.12650457 -29.11328125 18.71484375 C-26.40353073 16.18040648 -23.67029514 13.67361593 -20.92236328 11.18066406 C-19.42482067 9.80678038 -17.95585856 8.40194121 -16.48828125 6.99609375 C-11.23446919 2.22805379 -7.29413254 -0.65460164 0 0 Z M-7.2734375 28.6953125 C-7.799375 29.23027344 -8.3253125 29.76523437 -8.8671875 30.31640625 C-9.52976562 30.95964844 -10.19234375 31.60289062 -10.875 32.265625 C-11.69742188 33.08675781 -12.51984375 33.90789062 -13.3671875 34.75390625 C-15.16016318 36.44504429 -16.96570036 38.1221488 -18.77197266 39.79907227 C-20.75173803 41.63777629 -22.72388216 43.48439752 -24.6953125 45.33203125 C-28.37182438 48.76819914 -32.10427767 52.13781663 -35.85546875 55.4921875 C-39.92773618 59.15912816 -43.94479372 62.88538899 -47.96484375 66.609375 C-50.31801235 68.78843791 -52.68106139 70.95613794 -55.05078125 73.1171875 C-55.64785889 73.66334717 -56.24493652 74.20950684 -56.86010742 74.7722168 C-58.01051457 75.8241592 -59.16294796 76.87389101 -60.31762695 77.92114258 C-64.50383511 81.66832127 -64.50383511 81.66832127 -65.51435852 86.99787903 C-65.52950883 88.41366032 -65.5389957 89.8295085 -65.54418945 91.24536133 C-65.55076065 92.01790756 -65.55733185 92.7904538 -65.56410217 93.58641052 C-65.58384889 96.14875379 -65.5955008 98.71103841 -65.60546875 101.2734375 C-65.60954428 102.14796759 -65.6136198 103.02249767 -65.61781883 103.92352867 C-65.63868546 108.55228821 -65.65298459 113.18101804 -65.66235352 117.80981445 C-65.67341911 122.59167267 -65.70781885 127.37306568 -65.74752522 132.15475941 C-65.77366674 135.83079394 -65.78204315 139.50671722 -65.78563499 143.18283653 C-65.79050737 144.94549387 -65.80213988 146.70814603 -65.82067299 148.47071266 C-65.84501261 150.93893951 -65.8441093 153.40595754 -65.8371582 155.87426758 C-65.84996826 156.60120819 -65.86277832 157.3281488 -65.87597656 158.07711792 C-65.82641261 162.910268 -64.79996899 165.36306629 -61.3671875 168.75390625 C-58.98803613 169.94348194 -57.5259123 169.8873212 -54.8704071 169.90107727 C-53.4509227 169.91181023 -53.4509227 169.91181023 -52.00276184 169.92276001 C-50.44038033 169.92679337 -50.44038033 169.92679337 -48.84643555 169.9309082 C-47.20481445 169.940765 -47.20481445 169.940765 -45.5300293 169.95082092 C-41.89632098 169.97058548 -38.26265404 169.98222302 -34.62890625 169.9921875 C-33.39030161 169.99626303 -32.15169697 170.00033855 -30.87555885 170.00453758 C-24.99745735 170.02325695 -19.11936906 170.03782026 -13.24124497 170.04614955 C-6.45725704 170.05592127 0.32640454 170.08223854 7.11027747 170.12265044 C12.98677082 170.15645492 18.8631547 170.16829503 24.73973656 170.17235374 C27.23923138 170.17723365 29.73872237 170.18888727 32.23815346 170.20739174 C35.73366083 170.23166372 39.22831162 170.23083966 42.72387695 170.22387695 C44.27714943 170.24309204 44.27714943 170.24309204 45.86180115 170.26269531 C50.31117587 170.23033648 52.891586 170.20643343 56.75212097 167.84953308 C60.05659315 164.16740847 59.80927632 161.047188 59.85742188 156.31005859 C59.86881195 155.54233124 59.88020203 154.77460388 59.89193726 153.98361206 C60.00267093 145.94384632 60.05003699 137.90316073 60.09277344 129.86279297 C60.11502774 126.05048472 60.15676274 122.23915864 60.21582031 118.42724609 C60.28703952 113.82123322 60.32362491 109.2161429 60.33589172 104.6096077 C60.34627202 102.85772098 60.36864824 101.10586101 60.40348816 99.35429001 C60.95108315 88.37105681 60.95108315 88.37105681 56.30273438 78.83837891 C55.10892665 77.77611162 53.88582006 76.74565256 52.6328125 75.75390625 C51.47469799 74.57838039 50.32722095 73.39218664 49.1953125 72.19140625 C46.27643276 69.31743235 43.22682525 66.63430051 40.125 63.9609375 C36.77690124 60.99592841 33.52006297 57.93777149 30.2578125 54.87890625 C25.233494 50.17030673 20.19163833 45.49025457 15.03515625 40.92578125 C13.2654423 39.32584474 11.53361587 37.68375654 9.82421875 36.01953125 C8.87417969 35.106875 7.92414063 34.19421875 6.9453125 33.25390625 C6.09582031 32.41859375 5.24632812 31.58328125 4.37109375 30.72265625 C0.77392406 28.13638874 -3.05771141 26.6133658 -7.2734375 28.6953125 Z " fill="#FDFEFE" transform="translate(515.3671875,266.24609375)"/>
<path d="M0 0 C71.01785714 0 71.01785714 0 81.96484375 9.75 C88.26369788 16.3551409 91.16822841 23.39233466 91.5 32.5 C91.1620078 41.77843096 88.15360857 48.62706814 81.8046875 55.37109375 C78.45290035 58.39640813 75.51738864 60 71 60 C71 60.66 71 61.32 71 62 C71.825 62.061875 72.65 62.12375 73.5 62.1875 C80.9475055 63.91638521 86.89650724 68.58981012 91 75 C96.02667776 84.74113952 96.48226609 94.77212762 93.5 105.25 C89.55428571 115.57688672 82.91226844 120.59402799 73.24609375 125.4921875 C49.44384739 133.94450313 25.37058512 130 0 130 C0 87.1 0 44.2 0 0 Z " fill="#4798DE" transform="translate(545,609)"/>
<path d="M0 0 C0.99 0.99 0.99 0.99 2 2 C2.33 -0.97 2.66 -3.94 3 -7 C10.59 -7 18.18 -7 26 -7 C26.04529474 5.19648098 26.08194145 17.39290553 26.10362434 29.58945179 C26.11403423 35.25359551 26.12814218 40.91767839 26.15087891 46.58178711 C26.1727072 52.05421733 26.18458962 57.52658926 26.18975449 62.99905968 C26.19343237 65.08050135 26.2006141 67.16194005 26.21146011 69.2433567 C26.38363067 103.67232573 26.38363067 103.67232573 14 117 C1.32061314 129.32005201 -14.17421035 130.37968681 -30.8671875 130.22265625 C-41.0315499 129.97470694 -50.63312535 128.01437485 -60 124 C-59.03644647 109.21867882 -59.03644647 109.21867882 -58 103 C-53.50931741 103.57572854 -49.48837526 104.76885017 -45.24609375 106.28125 C-39.57868479 108.09482087 -34.1550892 108.21505864 -28.25 108.25 C-27.3940625 108.270625 -26.538125 108.29125 -25.65625 108.3125 C-18.4819495 108.35598061 -12.37480945 107.02488567 -6.1875 103.3125 C-0.60897189 97.41519886 1.14878807 90.68850288 1.0625 82.75 C1.05347656 81.67234375 1.04445313 80.5946875 1.03515625 79.484375 C1.02355469 78.66453125 1.01195312 77.8446875 1 77 C0.61070312 77.44730469 0.22140625 77.89460937 -0.1796875 78.35546875 C-6.96164696 85.68436042 -14.61814447 89.51070111 -24.56640625 90.2734375 C-36.7724606 90.5836598 -46.38471476 88.1321017 -55.96875 80.05859375 C-66.57487413 69.30969487 -69.35704728 55.9928992 -69.5 41.4375 C-69.37979361 26.83595961 -65.74270143 13.67401999 -55.72265625 2.62890625 C-49.97260118 -2.80822065 -43.59563247 -5.99247584 -36 -8 C-35.195625 -8.226875 -34.39125 -8.45375 -33.5625 -8.6875 C-20.90030183 -10.23167051 -10.43132973 -7.32846844 0 0 Z " fill="#4898DE" transform="translate(815,650)"/>
<path d="M0 0 C0.96349365 0.00088623 1.9269873 0.00177246 2.91967773 0.00268555 C11.02099408 0.13774176 17.8411533 1.34257689 24.53125 6.1484375 C26.99861082 7.69504493 26.99861082 7.69504493 29.52734375 6.64453125 C30.75130859 5.92330078 30.75130859 5.92330078 32 5.1875 C42.8018453 -1.02655681 55.0494401 -1.29578102 67 1.8125 C76.16296652 5.09971424 82.10839623 10.93524142 86.5625 19.5 C92.51393013 32.2678937 91.0625 40.80373688 91.0625 56.375 C71.9225 56.375 52.7825 56.375 33.0625 56.375 C36.08141613 69.37500727 36.08141613 69.37500727 45.125 77.25 C59.26720088 82.66616204 71.91753651 77.21720599 85.0625 71.375 C85.0625 78.635 85.0625 85.895 85.0625 93.375 C74.77792321 96.56321881 66.73279396 98.59395444 56 98.6875 C54.37674805 98.73100586 54.37674805 98.73100586 52.72070312 98.77539062 C41.12071443 98.86585244 31.81233669 95.62485089 23.1875 87.75 C21.0625 85.375 21.0625 85.375 21.0625 83.375 C20.423125 84.055625 19.78375 84.73625 19.125 85.4375 C12.83138493 91.6602011 6.7601269 96.29223494 -1.9375 98.375 C-2.865625 98.601875 -3.79375 98.82875 -4.75 99.0625 C-16.34636386 100.19939842 -27.4871526 99.40211413 -37.4375 92.6875 C-42.38650441 88.5755365 -45.76679567 82.70851042 -46.9375 76.375 C-47.76817226 66.20266925 -46.3380053 59.57577282 -40.8125 51.125 C-26.91556738 37.83228185 -5.7258314 39.21063143 12.0625 39.375 C11.78654024 30.35339238 11.78654024 30.35339238 8.0625 22.375 C1.94055428 18.3824267 -4.83278637 18.65492767 -11.9375 19.375 C-20.41269762 21.21657332 -28.14818393 24.63612829 -35.9375 28.375 C-35.9375 21.445 -35.9375 14.515 -35.9375 7.375 C-33.66875 6.59125 -31.4 5.8075 -29.0625 5 C-28.02440186 4.63575928 -28.02440186 4.63575928 -26.96533203 4.26416016 C-18.05219149 1.24229816 -9.40181787 -0.01561627 0 0 Z " fill="#4798DE" transform="translate(371.9375,641.625)"/>
<path d="M0 0 C10.56 0 21.12 0 32 0 C38.74009767 10.1101465 38.74009767 10.1101465 41.5234375 15.0546875 C42.14355713 16.14990723 42.76367676 17.24512695 43.40258789 18.37353516 C43.72341339 18.94324036 44.04423889 19.51294556 44.37478638 20.09991455 C46.12261318 23.20179385 47.88291246 26.29656269 49.64453125 29.390625 C50.00588669 30.02533722 50.36724213 30.66004944 50.73954773 31.31399536 C54.43895726 37.79575969 58.24235799 44.2136418 62.0625 50.625 C67.58670782 59.9003904 73.04692905 69.2090382 78.4375 78.5625 C79.08275635 79.68156738 79.7280127 80.80063477 80.39282227 81.95361328 C84.85482788 89.70965576 84.85482788 89.70965576 86 92 C86.33 61.64 86.66 31.28 87 0 C94.92 0 102.84 0 111 0 C111 42.9 111 85.8 111 130 C100.77 130 90.54 130 80 130 C70.91711356 118.19224763 70.91711356 118.19224763 68.8359375 112.77734375 C66.20407783 106.34746035 63.01023525 100.48480002 59.5 94.5 C58.42404615 92.5967659 57.35114205 90.69180455 56.28125 88.78515625 C52.90217387 82.80780613 49.46117511 76.86762085 46 70.9375 C45.49146484 70.06609375 44.98292969 69.1946875 44.45898438 68.296875 C38.3421738 57.84323819 32.16160526 47.42733198 26 37 C25.67 67.69 25.34 98.38 25 130 C16.75 130 8.5 130 0 130 C0 87.1 0 44.2 0 0 Z " fill="#4999DE" transform="translate(200,609)"/>
<path d="M0 0 C8.91 0 17.82 0 27 0 C27.89460937 2.56265625 28.78921875 5.1253125 29.7109375 7.765625 C36.73365127 27.87050528 43.79568457 47.95936394 51 68 C53.03867658 64.94198512 53.98945481 62.38677029 55.13891602 58.90795898 C55.34242676 58.29625854 55.5459375 57.68455811 55.75561523 57.05432129 C56.42590541 55.03627511 57.0898619 53.01620282 57.75390625 50.99609375 C58.21904086 49.59255242 58.68461817 48.18915773 59.15061951 46.78590393 C60.37557164 43.09393617 61.59537064 39.40028747 62.81384277 35.70617676 C64.76642866 29.78920159 66.72664105 23.87474981 68.68717766 17.96040535 C69.37182894 15.89247021 70.05419252 13.82379096 70.73622131 11.75498962 C71.15012619 10.50351639 71.56403107 9.25204315 71.99047852 7.96264648 C72.35528824 6.85694809 72.72009796 5.75124969 73.09596252 4.61204529 C74 2 74 2 75 0 C82.92 0 90.84 0 99 0 C97.68640684 5.91116923 96.40270757 11.08643663 94.20703125 16.61328125 C93.93791428 17.30777878 93.6687973 18.00227631 93.39152527 18.71781921 C92.53791112 20.91846458 91.67590928 23.11568139 90.8125 25.3125 C86.91508499 35.27180549 83.16721608 45.25807082 79.66424561 55.36354065 C76.71671572 63.8553822 73.6413314 72.29678389 70.50268555 80.71972656 C69.87377252 82.41228814 69.24879556 84.10631727 68.62768555 85.80175781 C65.37569312 94.67654458 61.99891421 103.41019618 57.79296875 111.8828125 C57.47630753 112.52277161 57.1596463 113.16273071 56.83338928 113.82208252 C51.35958159 124.50309284 44.10875025 130.64331213 33 135 C29.86808318 135.9514789 27.06484599 136.11665608 23.796875 136.09765625 C22.8171875 136.09443359 21.8375 136.09121094 20.828125 136.08789062 C19.81234375 136.07951172 18.7965625 136.07113281 17.75 136.0625 C16.203125 136.05573242 16.203125 136.05573242 14.625 136.04882812 C12.08330846 136.03706103 9.54164682 136.0191261 7 136 C7.66 129.07 8.32 122.14 9 115 C11.165625 115.061875 13.33125 115.12375 15.5625 115.1875 C23.2554354 115.18547238 23.2554354 115.18547238 30 112 C33.44438882 108.29065819 36.84730967 103.99499145 38 99 C37.62239736 92.18378826 34.87408124 86.50062948 32.15234375 80.3125 C31.14408831 77.97594255 30.13746925 75.63867843 29.13232422 73.30078125 C28.61305359 72.09631348 28.09378296 70.8918457 27.55877686 69.65087891 C25.05812249 63.79398781 22.65279846 57.89915385 20.25390625 52 C19.78439545 50.84685303 19.31488464 49.69370605 18.83114624 48.50561523 C17.40679067 45.00434048 15.98462319 41.50218198 14.5625 38 C13.58674723 35.60149794 12.61083619 33.20306025 11.63476562 30.8046875 C6.84650068 19.03335584 6.84650068 19.03335584 5.13601685 14.80371094 C4.36625523 12.9039248 3.59141559 11.00618972 2.8119812 9.11035156 C2.26104294 7.76021973 2.26104294 7.76021973 1.69897461 6.3828125 C1.37118515 5.58504395 1.04339569 4.78727539 0.70567322 3.96533203 C0 2 0 2 0 0 Z " fill="#4798DE" transform="translate(645,643)"/>
<path d="M0 0 C0 7.26 0 14.52 0 22 C-2.475 21.896875 -4.95 21.79375 -7.5 21.6875 C-14.22566554 21.5853397 -18.96500416 22.15669182 -24 27 C-31.94353366 34.94353366 -32.45303114 43.14236104 -32.51171875 53.8125 C-32.52966995 55.02196289 -32.54762115 56.23142578 -32.56611633 57.47753906 C-32.62004513 61.31832454 -32.65406014 65.15898695 -32.6875 69 C-32.72068834 71.61329831 -32.75517939 74.22658041 -32.79101562 76.83984375 C-32.87819962 83.22657854 -32.93842091 89.61276229 -33 96 C-41.25 96 -49.5 96 -58 96 C-58 64.32 -58 32.64 -58 0 C-50.08 0 -42.16 0 -34 0 C-33.67 3.96 -33.34 7.92 -33 12 C-31.700625 10.5975 -30.40125 9.195 -29.0625 7.75 C-21.75373896 0.53217223 -10.31690703 -5.15845351 0 0 Z " fill="#4798DE" transform="translate(533,643)"/>
<path d="M0 0 C6.03894217 3.42327261 11.32219064 9.22439664 13.4375 15.9140625 C15.33430038 27.12550758 14.95532421 38.95606651 8.44921875 48.6171875 C4.7339052 53.24452893 0.76639035 56.30068125 -5.125 57.5 C-11.34802561 57.98881772 -16.90163549 58.29881056 -22.125 54.5 C-29.12245062 48.19776045 -31.6756399 41.97657627 -32.4375 32.69140625 C-32.86275761 22.74893074 -31.35543388 14.6306891 -26 6.125 C-18.49963794 -0.72315666 -9.69475295 -4.15755751 0 0 Z " fill="#FCFDFE" transform="translate(803.125,662.5)"/>
<path d="M0 0 C4.08375 -0.061875 8.1675 -0.12375 12.375 -0.1875 C13.64134277 -0.21481201 14.90768555 -0.24212402 16.21240234 -0.27026367 C24.51582366 -0.33062151 32.35603215 0.03927612 39 5.4375 C43.64486492 11.38873318 43.63477611 16.60089097 43 24 C41.38398976 28.76297755 39.23556331 31.30464153 35 34 C28.05553586 36.76211409 20.93318396 36.22099346 13.5625 36.125 C9.086875 36.08375 4.61125 36.0425 0 36 C0 24.12 0 12.24 0 0 Z " fill="#FDFDFE" transform="translate(570,682)"/>
<path d="M0 0 C5.9090625 -0.0928125 5.9090625 -0.0928125 11.9375 -0.1875 C13.77235962 -0.22846802 13.77235962 -0.22846802 15.64428711 -0.27026367 C23.73076542 -0.33130113 30.62998832 0.19165693 37 5.5 C40.28015248 9.6001906 40.25601159 12.87976815 40 18 C39.0890095 23.19264584 37.45431378 26.10213041 33.828125 29.73828125 C29.47884119 32.74003055 24.89104117 33.24644595 19.7265625 33.1953125 C18.68580566 33.19031738 17.64504883 33.18532227 16.57275391 33.18017578 C14.61861572 33.15286377 14.61861572 33.15286377 12.625 33.125 C8.45875 33.08375 4.2925 33.0425 0 33 C0 22.11 0 11.22 0 0 Z " fill="#FDFDFE" transform="translate(570,629)"/>
<path d="M0 0 C0.44158912 7.80140774 -0.72273356 15.23073141 -4.8125 22 C-10.31017503 27.02644574 -16.52809861 28.36830314 -23.75 28.28515625 C-28.12463064 27.73073258 -30.76821495 25.14966604 -33.875 22.25 C-35.57072301 18.85855398 -35.64220449 15.66268278 -35 12 C-32.95119633 8.12190734 -30.85769817 5.14316565 -27 3 C-21.32093916 1.35443335 -16.01816144 0.62313311 -10.125 0.375 C-8.98804688 0.31699219 -8.98804688 0.31699219 -7.828125 0.2578125 C-5.21820663 0.12778098 -2.61360922 0 0 0 Z " fill="#FBFCFE" transform="translate(384,695)"/>
<path d="M0 0 C0.97259766 -0.00257813 1.94519531 -0.00515625 2.94726562 -0.0078125 C3.96626953 -0.00007813 4.98527344 0.00765625 6.03515625 0.015625 C7.05029297 0.00789063 8.06542969 0.00015625 9.11132812 -0.0078125 C10.08521484 -0.00523437 11.05910156 -0.00265625 12.0625 0 C12.95573975 0.00225586 13.84897949 0.00451172 14.76928711 0.00683594 C17.09765625 0.265625 17.09765625 0.265625 20.09765625 2.265625 C20.4699707 4.6640625 20.4699707 4.6640625 20.4609375 7.640625 C20.46029297 8.70796875 20.45964844 9.7753125 20.45898438 10.875 C20.44287109 11.99390625 20.42675781 13.1128125 20.41015625 14.265625 C20.41499023 15.94398438 20.41499023 15.94398438 20.41992188 17.65625 C20.36450655 25.9987747 20.36450655 25.9987747 18.09765625 28.265625 C15.79101562 28.52441406 15.79101562 28.52441406 12.94140625 28.53125 C11.40806641 28.53511719 11.40806641 28.53511719 9.84375 28.5390625 C8.77253906 28.53132813 7.70132812 28.52359375 6.59765625 28.515625 C4.99083984 28.52722656 4.99083984 28.52722656 3.3515625 28.5390625 C2.32933594 28.53648437 1.30710937 28.53390625 0.25390625 28.53125 C-0.68646484 28.52899414 -1.62683594 28.52673828 -2.59570312 28.52441406 C-4.90234375 28.265625 -4.90234375 28.265625 -6.90234375 26.265625 C-7.16113281 23.8671875 -7.16113281 23.8671875 -7.16796875 20.890625 C-7.17054688 19.82328125 -7.173125 18.7559375 -7.17578125 17.65625 C-7.16417969 15.97789062 -7.16417969 15.97789062 -7.15234375 14.265625 C-7.16007812 13.14671875 -7.1678125 12.0278125 -7.17578125 10.875 C-7.17320312 9.80765625 -7.170625 8.7403125 -7.16796875 7.640625 C-7.16571289 6.65835937 -7.16345703 5.67609375 -7.16113281 4.6640625 C-6.65493958 -0.02729821 -4.07778407 0.01031138 0 0 Z " fill="#FBFCFE" transform="translate(489.90234375,386.734375)"/>
<path d="M0 0 C0.97388672 0.00064453 1.94777344 0.00128906 2.95117188 0.00195312 C3.96630859 0.01806641 4.98144531 0.03417969 6.02734375 0.05078125 C7.55584961 0.04594727 7.55584961 0.04594727 9.11523438 0.04101562 C16.69785234 0.09628984 16.69785234 0.09628984 18.96484375 2.36328125 C19.22363281 4.76171875 19.22363281 4.76171875 19.23046875 7.73828125 C19.23433594 9.33929688 19.23433594 9.33929688 19.23828125 10.97265625 C19.23054687 12.0915625 19.2228125 13.21046875 19.21484375 14.36328125 C19.22257813 15.4821875 19.2303125 16.60109375 19.23828125 17.75390625 C19.23570312 18.82125 19.233125 19.88859375 19.23046875 20.98828125 C19.22821289 21.97054688 19.22595703 22.9528125 19.22363281 23.96484375 C18.96484375 26.36328125 18.96484375 26.36328125 16.96484375 28.36328125 C14.65820312 28.62207031 14.65820312 28.62207031 11.80859375 28.62890625 C10.27525391 28.63277344 10.27525391 28.63277344 8.7109375 28.63671875 C7.63972656 28.62898438 6.56851563 28.62125 5.46484375 28.61328125 C3.85802734 28.62488281 3.85802734 28.62488281 2.21875 28.63671875 C1.19652344 28.63414062 0.17429687 28.6315625 -0.87890625 28.62890625 C-1.81927734 28.62665039 -2.75964844 28.62439453 -3.72851562 28.62207031 C-6.03515625 28.36328125 -6.03515625 28.36328125 -8.03515625 26.36328125 C-8.48998392 22.56981634 -8.35918975 18.74336996 -8.34765625 14.92578125 C-8.36376953 13.86294922 -8.37988281 12.80011719 -8.39648438 11.70507812 C-8.39712891 10.68607422 -8.39777344 9.66707031 -8.3984375 8.6171875 C-8.40290894 7.21448608 -8.40290894 7.21448608 -8.4074707 5.78344727 C-8.03515625 3.36328125 -8.03515625 3.36328125 -6.82714844 1.55761719 C-4.44184668 -0.03215069 -2.855328 -0.00952892 0 0 Z " fill="#FAFCFE" transform="translate(523.03515625,386.63671875)"/>
<path d="M0 0 C1.48294556 0.00616333 1.48294556 0.00616333 2.99584961 0.01245117 C4.06770508 0.01438477 5.13956055 0.01631836 6.24389648 0.01831055 C7.36731445 0.03055664 8.49073242 0.04280273 9.64819336 0.05541992 C11.33912109 0.05638672 11.33912109 0.05638672 13.06420898 0.05737305 C21.44556019 0.10278675 21.44556019 0.10278675 22.58569336 1.24291992 C22.83826213 5.21567807 22.77091787 9.20058167 22.77319336 13.18041992 C22.78543945 14.30383789 22.79768555 15.42725586 22.81030273 16.5847168 C22.81320312 18.1925 22.81320312 18.1925 22.81616211 19.83276367 C22.820271 20.82139404 22.82437988 21.81002441 22.82861328 22.82861328 C22.58569336 25.24291992 22.58569336 25.24291992 20.58569336 27.24291992 C18.27905273 27.50170898 18.27905273 27.50170898 15.42944336 27.50854492 C13.89610352 27.51241211 13.89610352 27.51241211 12.33178711 27.51635742 C11.26057617 27.50862305 10.18936523 27.50088867 9.08569336 27.49291992 C7.47887695 27.50452148 7.47887695 27.50452148 5.83959961 27.51635742 C4.81737305 27.5137793 3.79514648 27.51120117 2.74194336 27.50854492 C1.80157227 27.50628906 0.86120117 27.5040332 -0.10766602 27.50170898 C-2.41430664 27.24291992 -2.41430664 27.24291992 -4.41430664 25.24291992 C-4.6730957 22.9362793 -4.6730957 22.9362793 -4.67993164 20.08666992 C-4.68250977 19.06444336 -4.68508789 18.0422168 -4.68774414 16.98901367 C-4.67614258 15.38219727 -4.67614258 15.38219727 -4.66430664 13.74291992 C-4.67204102 12.67170898 -4.67977539 11.60049805 -4.68774414 10.49682617 C-4.68516602 9.47459961 -4.68258789 8.45237305 -4.67993164 7.39916992 C-4.67767578 6.45879883 -4.67541992 5.51842773 -4.6730957 4.54956055 C-4.3000017 1.22409625 -3.3116649 0.33320928 0 0 Z " fill="#FDFDFE" transform="translate(519.414306640625,354.757080078125)"/>
<path d="M0 0 C3.95827235 -0.05785647 7.9164367 -0.09354717 11.875 -0.125 C13.00292969 -0.14175781 14.13085938 -0.15851563 15.29296875 -0.17578125 C16.36933594 -0.18222656 17.44570313 -0.18867188 18.5546875 -0.1953125 C19.54968262 -0.20578613 20.54467773 -0.21625977 21.56982422 -0.22705078 C24 0 24 0 26 2 C26.25878906 4.30664062 26.25878906 4.30664062 26.265625 7.15625 C26.26949219 8.68958984 26.26949219 8.68958984 26.2734375 10.25390625 C26.26570313 11.32511719 26.25796875 12.39632813 26.25 13.5 C26.25773437 14.57121094 26.26546875 15.64242188 26.2734375 16.74609375 C26.27085937 17.76832031 26.26828125 18.79054688 26.265625 19.84375 C26.26336914 20.78412109 26.26111328 21.72449219 26.25878906 22.69335938 C26 25 26 25 24 27 C21.69335938 27.25878906 21.69335938 27.25878906 18.84375 27.265625 C17.31041016 27.26949219 17.31041016 27.26949219 15.74609375 27.2734375 C14.67488281 27.26570313 13.60367187 27.25796875 12.5 27.25 C10.89318359 27.26160156 10.89318359 27.26160156 9.25390625 27.2734375 C8.23167969 27.27085937 7.20945312 27.26828125 6.15625 27.265625 C5.21587891 27.26336914 4.27550781 27.26111328 3.30664062 27.25878906 C1 27 1 27 -1 25 C-1.24291992 22.69335938 -1.24291992 22.69335938 -1.23046875 19.84375 C-1.22853516 18.82152344 -1.22660156 17.79929687 -1.22460938 16.74609375 C-1.21236328 15.67488281 -1.20011719 14.60367187 -1.1875 13.5 C-1.18685547 12.42878906 -1.18621094 11.35757812 -1.18554688 10.25390625 C-1.14030114 2.28060228 -1.14030114 2.28060228 0 0 Z " fill="#FEFEFE" transform="translate(484,355)"/>
<path d="M0 0 C4.96937289 2.41791269 7.68633819 5.71584547 9.75 10.875 C10.1444594 14.22790489 10 17.62397135 10 21 C-1.55 21 -13.1 21 -25 21 C-23.95324644 11.57921798 -22.89978325 7.89978325 -16.5 1.5 C-11.1531887 -0.79149056 -5.73223428 -0.79634294 0 0 Z " fill="#FDFDFE" transform="translate(431,660)"/>
</svg>
